<svg data-name="Layer 1" xmlns="http://www.w3.org/2000/svg" width="400" height="260" viewBox="0 0 531.277 538.577"><path d="m223.983 248.227 191.825-.342a1.293 1.293 0 0 0 0-2.586l-191.825.342a1.293 1.293 0 0 0 0 2.586z" fill="#3f3d56"/><circle cx="221.117" cy="248.227" r="18.1" fill="#3f3d56"/><path d="M407.209 248.135a124.068 124.068 0 1 1 124.068-124.067 124.208 124.208 0 0 1-124.068 124.067zm0-239.579A115.511 115.511 0 1 0 522.72 124.068 115.643 115.643 0 0 0 407.21 8.556z" fill="#3f3d56"/><path d="M460.742 173.78a22.96 22.96 0 1 1 22.946-22.977 22.971 22.971 0 0 1-22.946 22.976zm-53.533 0a22.971 22.971 0 0 1-22.945-22.945V97.3a22.945 22.945 0 0 1 45.89 0v53.534a22.971 22.971 0 0 1-22.945 22.944zm-53.519 0a22.987 22.987 0 0 1-22.96-22.962v-21.389a22.96 22.96 0 0 1 45.922 0v21.39a22.987 22.987 0 0 1-22.962 22.96z" fill="#6c63ff"/><path d="M33.431 427.93v2.08a13.016 13.016 0 0 0 13.005 13.006h110.282a13.01 13.01 0 0 0 13.005-13.005v-2.081a12.912 12.912 0 0 0-3.018-8.323 13.379 13.379 0 0 0-2.195-2.081h-57.2a2.602 2.602 0 0 1-2.602-2.601H46.436a13.023 13.023 0 0 0-13.005 13.005z" fill="#3f3d56"/><path fill="#3f3d56" d="M107.824 538.215H94.3V442.5h13.525z"/><path d="M55.805 537.74c0 1.461 20.495.565 45.777.565s45.777.896 45.777-.565-20.495-13.05-45.777-13.05-45.777 11.588-45.777 13.05z" fill="#3f3d56"/><path d="m54.655 425.735 46.152 7.366 53.622 8.562 18.592 2.965a6.826 6.826 0 0 0 7.803-5.66l.842-5.264.78-4.9.645-4.037a6.749 6.749 0 0 0-1.29-5.16 6.587 6.587 0 0 0-2.528-2.081H107.31a2.602 2.602 0 0 1-2.6-2.601v-2.05a2.602 2.602 0 0 1 2.6-2.6h28.278l-13.036-2.081-40.076-6.399-23.398-3.735a6.84 6.84 0 0 0-7.824 5.67l-2.268 14.191a6.853 6.853 0 0 0 5.67 7.814z" fill="#6c63ff"/><path d="M154.429 423.758v79.288a6.824 6.824 0 0 0 6.814 6.815h14.389a6.825 6.825 0 0 0 6.815-6.815v-79.288a6.726 6.726 0 0 0-1.426-4.151 6.577 6.577 0 0 0-2.642-2.081h-19.893a6.613 6.613 0 0 0-2.632 2.08 6.746 6.746 0 0 0-1.425 4.152zM111.065 289.558a6.866 6.866 0 0 0 .541 2.05 6.717 6.717 0 0 0 1.946 2.549l.031.02 41.054 33.303.603.479 8.5 6.898 2.57 2.08h44.456l-2.56-2.08-35.134-28.507-23.543-19.102-18.322-14.857a6.747 6.747 0 0 0-3.766-1.498.033.033 0 0 0-.02-.01 6.917 6.917 0 0 0-1.229.02 6.555 6.555 0 0 0-1.779.438 5.008 5.008 0 0 0-1.103.561 6.57 6.57 0 0 0-1.695 1.488l-8.927 10.997-.135.177a6.764 6.764 0 0 0-1.488 4.994z" fill="#6c63ff"/><path d="M113.583 294.177a16.868 16.868 0 0 0 3.319 5.233l27.331 29.36a6.814 6.814 0 0 0 9.644-.426l.76-.864.333-.374 11.808-13.244 5.077-5.702a5.989 5.989 0 0 0 .874-1.165 7.65 7.65 0 0 0 .343-.645 6.901 6.901 0 0 0 .572-3.09 6.723 6.723 0 0 0-2.236-4.755l-31.69-24.22a16.973 16.973 0 0 0-12.277-3.392.033.033 0 0 0-.02-.01 17.842 17.842 0 0 0-2.873.603c-.416.115-.821.26-1.238.417a16.769 16.769 0 0 0-6.918 4.89 16.987 16.987 0 0 0-2.809 17.384z" fill="#2f2e41"/><circle cx="100.606" cy="194.567" r="52.147" fill="#6c63ff"/><path d="m86.72 418.546 19.34 3.08.438.072 29.401 4.692 18.53 2.965 27.237 4.35.78.124 4.047.645 18.592 2.965a6.826 6.826 0 0 0 7.803-5.66l1.623-10.154.645-4.037c0-.02.01-.041.01-.062H107.31a2.602 2.602 0 0 1-2.6-2.601v-2.05a2.602 2.602 0 0 1 2.6-2.6h34.083v-11.372l-2.08-.333-10.28-1.644-37.9-6.044a6.828 6.828 0 0 0-7.814 5.66l-.843 5.253-1.425 8.948a6.834 6.834 0 0 0 5.67 7.803z" fill="#6c63ff"/><path d="M29.634 372.477c0 42.51 4.318 67.938 70.903 60.655l.27-.031a197.705 197.705 0 0 0 35.092-6.71 104.22 104.22 0 0 0 17.313-6.784 78.198 78.198 0 0 0 3.808-2.081h-49.71a2.602 2.602 0 0 1-2.602-2.601v-2.05a2.602 2.602 0 0 1 2.601-2.6h34.083v-65.712a7.637 7.637 0 0 1 7.627-7.626h27.726c-.24-.686-.478-1.383-.738-2.08a170.447 170.447 0 0 0-9.229-20.995 160.15 160.15 0 0 0-17.25-26.614 110.835 110.835 0 0 0-15.439-15.803c-10.435-8.615-21.796-13.942-33.324-13.942-42.51 0-71.131 72.464-71.131 114.974zM99.51 213.895l-.054-1.95c3.625-.1 6.821-.327 9.223-2.082a5.99 5.99 0 0 0 2.32-4.412 3.424 3.424 0 0 0-1.123-2.82c-1.594-1.347-4.16-.911-6.03-.054l-1.612.74 3.092-22.596 1.93.264-2.63 19.221c2.541-.747 4.895-.425 6.508.936a5.33 5.33 0 0 1 1.812 4.377 7.924 7.924 0 0 1-3.118 5.918c-3.086 2.255-7.096 2.367-10.318 2.458zM116.805 182.643H127.3v1.949h-10.495zM83.677 182.643h10.495v1.949H83.677z" fill="#2f2e41"/><path d="M58.988 180.24c4.056-6.105 11.192-8.693 18.229-9.323 7.92-.708 15.574.82 23.307 2.303 8.511 1.633 17.519 3.161 26.094 1.096a25.724 25.724 0 0 0 17.486-14.126 32.905 32.905 0 0 0 1.916-21.94c-2.01-7.782-6.998-14.628-13.045-19.8-12.341-10.555-29.043-15.299-45.107-14.852a76.262 76.262 0 0 0-44.211 15.545 71.807 71.807 0 0 0-25.474 39.921 74.858 74.858 0 0 0 3.624 47.085c3.516 8.155 8.6 15.506 12.523 23.456 3.652 7.401 6.465 16.006 4.193 24.262-1.994 7.244-7.85 13.68-15.2 15.646a15.961 15.961 0 0 1-17.75-7.246c-3.673-5.794-3.761-13.382 1.756-18.06a13.542 13.542 0 0 1 19.535 1.949 13.94 13.94 0 0 1 2.789 10.22c-.272 1.84 2.544 2.634 2.818.777a16.489 16.489 0 0 0-30.744-10.647c-3.327 6.255-1.532 13.8 2.692 19.147a18.662 18.662 0 0 0 19.027 6.842c7.688-1.775 13.977-7.885 16.934-15.065 3.293-7.994 1.784-16.914-1.425-24.67-3.47-8.385-8.622-15.905-12.697-23.984a68.308 68.308 0 0 1-6.931-23.339 73.847 73.847 0 0 1 10.532-46.776 68.635 68.635 0 0 1 37.803-28.73c15.4-4.835 32.385-4.687 47.464 1.254 14.853 5.852 29.195 18.606 29.022 35.735-.073 7.317-2.79 14.779-8.394 19.659-6.698 5.832-16.024 6.33-24.443 5.42-8.473-.915-16.702-3.39-25.211-4.021-7.402-.55-15.387.022-21.996 3.699a21.992 21.992 0 0 0-7.64 7.087c-1.044 1.572 1.487 3.037 2.524 1.476z" fill="#2f2e41"/><path d="M67.286 307.869a5.484 5.484 0 0 0 .28.551 5.913 5.913 0 0 0 .344.541l22.805 32.825 1.769 2.549 18.602 26.758 17.947 25.833 7.262 10.467a6.066 6.066 0 0 0 .655.8 6.795 6.795 0 0 0 4.255 2.082h.187V365.63l-2.08-2.996-23.336-33.584-25.063-36.07a6.829 6.829 0 0 0-9.488-1.717l-7.69 5.337-4.13 2.872a6.814 6.814 0 0 0-2.32 8.396z" fill="#6c63ff"/><path d="m63.717 307.068 1.03 2.07.01.01.281.552 16.72 33.188a6.839 6.839 0 0 0 9.373 2.29l1.082-.677.27-.166 21.558-13.526a6.812 6.812 0 0 0 2.268-9.405l-23.68-32.106a17.02 17.02 0 0 0-20.786-5.369 16.739 16.739 0 0 0-2.31 1.27 17.024 17.024 0 0 0-5.816 21.869z" fill="#2f2e41"/><path d="M186.493 417.526v78.331a6.825 6.825 0 0 0 6.815 6.815h14.389a6.824 6.824 0 0 0 6.814-6.815v-78.331z" fill="#6c63ff"/><path d="M102.628 412.875v2.05a4.699 4.699 0 0 0 3.766 4.599c.145.02.291.052.437.062.156.01.312.02.478.02h160.387a9.72 9.72 0 0 0 9.717-9.706v-65.337a9.72 9.72 0 0 0-9.717-9.706H149.018a9.718 9.718 0 0 0-9.706 9.706v63.63h-32.003a4.682 4.682 0 0 0-4.681 4.682z" fill="#fff"/><path d="M102.628 412.875v2.05a4.699 4.699 0 0 0 3.766 4.599c.145.02.291.052.437.062.156.01.312.02.478.02h160.387a9.72 9.72 0 0 0 9.717-9.706v-65.337a9.72 9.72 0 0 0-9.717-9.706H149.018a9.718 9.718 0 0 0-9.706 9.706v63.63h-32.003a4.682 4.682 0 0 0-4.681 4.682zm2.08 2.05v-2.05a2.602 2.602 0 0 1 2.601-2.6h34.083v-65.712a7.637 7.637 0 0 1 7.627-7.626h118.677a7.64 7.64 0 0 1 7.636 7.626V409.9a7.64 7.64 0 0 1-7.636 7.626H107.31a2.602 2.602 0 0 1-2.6-2.601z" fill="#3f3d56"/><circle cx="208.361" cy="377.233" r="8.001" fill="#6c63ff"/><path fill="#3f3d56" d="M139.343 409.297h2.081v9.364h-2.081z"/></svg>