<svg xmlns="http://www.w3.org/2000/svg" xmlns:xlink="http://www.w3.org/1999/xlink" width="700"  viewBox="0 0 900 700" height="450"><defs><path d="M535.87 122.96c6.63 0 12 5.38 12 12 0 6.63-5.37 12-12 12-6.62 0-11.99-5.37-12-12 0-6.62 5.37-12 12-12zm0 22c5.52 0 10-4.47 10-10 0-5.52-4.48-10-10-10-5.52.01-9.99 4.48-10 10 0 5.53 4.48 10 10 10z" id="p"/><path d="M875.04 0v663H661.48a684.083 684.083 0 01-11.22-.09c-3.68-.04-6.62-.13-7.35-.15-11.25-.27-20.22-.77-22.46-.86-124.91-6.48-246.54-42.61-355.85-104.26-260.77-147.09-589.56-81.49-589.56-81.49V0h1200z" id="a"/><path d="M161.97 94.17l-96.96 66.56-7.64 5.25-7.07 4.85-212.33 145.76v-90.7l80.22-55.06 52.78-36.23 4.89-3.36 90.91-62.41 64.1-44h132.1l-101 69.34z" id="c"/><path d="M800.97 193.83c-12.15 0-22 9.85-22 22s9.85 22 22 22 22-9.85 22-22-9.85-22-22-22z" id="d"/><path d="M467.97 345.83h-150v-73h150v73zm-148-2h146v-69h-146v69z" id="e"/><path d="M51.47 120.33l-52 22v-45l52 23z" id="f"/><path d="M358.97 298.33c-6.07 0-11 4.92-11 11 0 6.07 4.93 11 11 11 6.08 0 11-4.93 11-11 0-6.08-4.92-11-11-11z" id="g"/><path d="M392.97 298.33c-6.07 0-11 4.92-11 11 0 6.07 4.93 11 11 11 6.08 0 11-4.93 11-11 0-6.08-4.92-11-11-11z" id="h"/><path d="M426.97 298.33c-6.07 0-11 4.92-11 11 0 6.07 4.93 11 11 11 6.08 0 11-4.93 11-11 0-6.08-4.92-11-11-11z" id="i"/><path d="M296.75 66.63c26.7 14.44 48.91 32.58 66.04 54 14.34 17.98 25.2 38.22 32.07 59.8 11.94 37.19 8.73 66.97 8.7 67.27-.4-.03-3.58-.32-3.98-.36.03-.29 3.16-29.31-8.56-65.79-10.61-33.04-35.91-78.91-96.08-111.53-.23 1.68-2.11 15.13-2.35 16.82-4.26-10.08-13.48-22.06-21.64-30.39 12.04 1.26 27.87 1.18 39.14-1.53-2.67 2.35-12 10.54-13.34 11.71z" id="j"/><path d="M305.71 356.54c-.22.18-22.57 17.77-58.34 27.84-32.33 9.11-82.48 13.69-139.13-15.18 1.26-1.06 11.35-9.51 12.61-10.56-10.38 2-24.79 1.21-35.68-.67 7.03 8.53 14.85 20.66 18.25 30.67.29-1.63 2.66-14.66 2.95-16.29 25.13 12.84 51.07 20.33 77.15 22.23 6.71.49 12.1.44 13.44.48 17.43-.02 34.78-2.44 51.55-7.21 36.44-10.29 59.25-28.28 59.47-28.46-.45-.57-1.82-2.28-2.27-2.85z" id="k"/><path d="M476.99 352.25c.22.17 22.56 17.77 58.34 27.84 32.33 9.1 82.48 13.69 139.13-15.18-1.27-1.06-11.35-9.51-12.62-10.57 10.39 2.01 24.8 1.22 35.69-.67-7.03 8.54-14.85 20.67-18.25 30.68-.29-1.63-2.66-14.67-2.95-16.3-25.14 12.85-51.07 20.34-77.15 22.23-6.71.49-12.1.44-13.44.49-17.44-.02-34.78-2.44-51.55-7.21-36.44-10.29-59.25-28.28-59.47-28.46.45-.57 1.82-2.28 2.27-2.85z" id="l"/><path d="M35.53 328.25v8.58h-94.11v-8.58h94.11z" id="m"/><path d="M35.53 352.25v8.58h-94.11v-8.58h94.11z" id="n"/><path d="M35.53 376.25v8.58h-94.11v-8.58h94.11z" id="o"/><path d="M26.24 68.83l-71.23 48.9-7.64 5.25-58.4 40.09-51 35.01v-90.69l23-15.79 4.89-3.36 23.11-15.86 5.16-3.55 64.1-44h132.1l-64.09 44z" id="b"/><path d="M663.56 575.7l-17.67-18.94 18.94-17.66 17.66 18.94-18.93 17.66zm-14.85-18.84l14.94 16.03 16.03-14.95-14.95-16.03-16.02 14.95z" id="q"/><path d="M195.56 247.7l-17.67-18.94 18.94-17.66 17.66 18.94-18.93 17.66zm-14.85-18.84l14.94 16.03 16.03-14.95-14.95-16.03-16.02 14.95z" id="r"/><path d="M842.01 341.28c-36.98 0-66.95 29.97-66.95 66.94 0 36.98 29.97 66.95 66.95 66.95 36.97 0 66.94-29.97 66.94-66.95 0-36.97-29.97-66.94-66.94-66.94z" id="s"/><path d="M824.41 687.83a684.083 684.083 0 01-11.22-.09c-2.45-.03-4.9-.08-7.35-.15l-2.38-9.41 4.76-.81 5.72-.97 54.88-9.32c27.42-4.66 42.66-7.24 45.7-7.76 1.44-.25 2.9-.18 4.3.21a9.988 9.988 0 017.37 8.92c.46 6.23 1.84 13.84 5.46 19.38H824.41z" id="t"/><path d="M830.09 388.76c-24.3 0-43.99 19.7-43.99 43.99 0 24.3 19.69 43.99 43.99 43.99 24.29 0 43.99-19.69 43.99-43.99 0-24.29-19.7-43.99-43.99-43.99z" id="u"/><path d="M830.09 472.11s15.43 39.36 3.08 46.31l-18.52 7.72c-.87 1.49-5.25 8.95-13.12 22.38l-7.72 23.15 61.74 2.31c25.93-41.21 40.34-64.1 43.22-68.68 0 0-20.84-10.81-31.64-57.11-7.41 4.78-29.64 19.14-37.04 23.92z" id="v"/><path d="M910.73 506.46s-7.85-5.16-15.11-3.35c-3.55.77-7.02 1.9-10.35 3.35 0 0-40.13 54.79-61.74 56.33 0 0-28.56 7.72-21.61-3.85 6.94-11.58 22.16-35.95 22.16-35.95s-27.57 6.62-27.57 15.88c0 9.26-5.4 26.24-5.4 26.24s-26.24 26.24 0 57.11 16.21 58.65 16.21 58.65c7.72-1.39 46.3-8.33 115.76-20.83-6.58-81.91-10.7-133.11-12.35-153.58z" id="w"/><path d="M783.38 686.73l4.48-68.68.93-14.35c12.51 23.62 19.46 36.74 20.84 39.36 0 0 1.86 13.75 4.31 33.34.14 1.05.27 2.11.41 3.2.32 2.64.66 5.37 1 8.17-.21 0-1.94-.03-2.16-.03-2.45-.03-4.9-.08-7.35-.15l-22.46-.86z" id="x"/><path d="M869.74 319.65c-15.29 0-27.7 12.4-27.7 27.7 0 15.3 12.41 27.7 27.7 27.7 15.3 0 27.71-12.4 27.71-27.7 0-15.3-12.41-27.7-27.71-27.7z" id="y"/><path d="M857.62 304.79c-.95-.1-1.92-.15-2.88-.15-15.3 0-27.7 12.4-27.7 27.7 0 15.3 12.4 27.7 27.7 27.7.96 0 1.93-.05 2.88-.15-14.1-1.47-24.81-13.36-24.81-27.55 0-14.18 10.71-26.07 24.81-27.55z" id="z"/><path d="M841.78 381.22c24.64 6.55 41.44 23.85 37.51 38.63-3.93 14.79-27.09 21.47-51.74 14.92-24.64-6.55-41.43-23.85-37.5-38.63 3.93-14.79 27.09-21.46 51.73-14.92z" id="A"/><path d="M918.82 659.53c-.06.45-.1.88-.15 1.3-.61 5.35-.99 8.47-.99 8.47-.61 1.23-3.66 7.41-9.17 18.53h-48.88c2.82-6.44 5.48-12.45 7.86-17.79.46-1.01.9-2 1.33-2.96 5.35-11.87 9.11-19.79 9.88-20.55 3.09-3.09 12.74-135.44 12.74-135.44s7.48-6.41 15.68-6.5h.01c5.73-.07 11.82 2.96 15.95 13.44 6.74 17.12 1.98 79.61-1.87 118.71-.9 9.18-1.75 17.08-2.39 22.79z" id="B"/><path d="M809.08 670.83c-1.37 9.66-15.65-45.77-15.65-45.77 3.13 9.15 17.03 36.11 15.65 45.77z" id="C"/><path d="M881.02 430.44c0 4.26-1.73 7.72-3.86 7.72s-3.86-3.46-3.86-7.72 1.73-7.72 3.86-7.72 3.86 3.46 3.86 7.72z" id="D"/></defs><use xlink:href="#a" fill="#6c63ff"/><use xlink:href="#a" fill-opacity="0" stroke="#000" stroke-opacity="0"/><use xlink:href="#b"/><use xlink:href="#b" fill-opacity="0" stroke="#000" stroke-opacity="0"/><use xlink:href="#c"/><use xlink:href="#c" fill-opacity="0" stroke="#000" stroke-opacity="0"/><use xlink:href="#d" fill="#3f3d56"/><use xlink:href="#d" fill-opacity="0" stroke="#000" stroke-opacity="0"/><use xlink:href="#e" fill="#d0cde1"/><use xlink:href="#e" fill-opacity="0" stroke="#000" stroke-opacity="0"/><use xlink:href="#f" fill="#3f3d56"/><use xlink:href="#f" fill-opacity="0" stroke="#000" stroke-opacity="0"/><use xlink:href="#g" fill="#3f3d56"/><use xlink:href="#g" fill-opacity="0" stroke="#000" stroke-opacity="0"/><use xlink:href="#h" fill="#3f3d56"/><use xlink:href="#h" fill-opacity="0" stroke="#000" stroke-opacity="0"/><use xlink:href="#i" fill="#3f3d56"/><use xlink:href="#i" fill-opacity="0" stroke="#000" stroke-opacity="0"/><use xlink:href="#j" fill="#d0cde1"/><use xlink:href="#j" fill-opacity="0" stroke="#000" stroke-opacity="0"/><use xlink:href="#k" fill="#d0cde1"/><use xlink:href="#k" fill-opacity="0" stroke="#000" stroke-opacity="0"/><use xlink:href="#l" fill="#d0cde1"/><use xlink:href="#l" fill-opacity="0" stroke="#000" stroke-opacity="0"/><use xlink:href="#m" fill="#3f3d56"/><use xlink:href="#m" fill-opacity="0" stroke="#000" stroke-opacity="0"/><use xlink:href="#n" fill="#3f3d56"/><use xlink:href="#n" fill-opacity="0" stroke="#000" stroke-opacity="0"/><use xlink:href="#o" fill="#3f3d56"/><use xlink:href="#o" fill-opacity="0" stroke="#000" stroke-opacity="0"/><use xlink:href="#p" fill="#3f3d56"/><use xlink:href="#p" fill-opacity="0" stroke="#000" stroke-opacity="0"/><use xlink:href="#q" fill="#3f3d56"/><use xlink:href="#q" fill-opacity="0" stroke="#000" stroke-opacity="0"/><use xlink:href="#r" fill="#3f3d56"/><use xlink:href="#r" fill-opacity="0" stroke="#000" stroke-opacity="0"/><use xlink:href="#s" fill="#2f2e41"/><use xlink:href="#s" fill-opacity="0" stroke="#000" stroke-opacity="0"/><use xlink:href="#t" fill="#2f2e41"/><use xlink:href="#t" fill-opacity="0" stroke="#000" stroke-opacity="0"/><use xlink:href="#u" fill="#a0616a"/><use xlink:href="#u" fill-opacity="0" stroke="#000" stroke-opacity="0"/><use xlink:href="#v" fill="#a0616a"/><use xlink:href="#v" fill-opacity="0" stroke="#000" stroke-opacity="0"/><use xlink:href="#w" fill="#d0cde1"/><use xlink:href="#w" fill-opacity="0" stroke="#000" stroke-opacity="0"/><use xlink:href="#x" fill="#d0cde1"/><use xlink:href="#x" fill-opacity="0" stroke="#000" stroke-opacity="0"/><use xlink:href="#y" fill="#2f2e41"/><use xlink:href="#y" fill-opacity="0" stroke="#000" stroke-opacity="0"/><use xlink:href="#z" fill="#2f2e41"/><use xlink:href="#z" fill-opacity="0" stroke="#000" stroke-opacity="0"/><use xlink:href="#A" fill="#2f2e41"/><use xlink:href="#A" fill-opacity="0" stroke="#000" stroke-opacity="0"/><use xlink:href="#B" fill="#d0cde1"/><use xlink:href="#B" fill-opacity="0" stroke="#000" stroke-opacity="0"/><use xlink:href="#C"/><use xlink:href="#C" fill-opacity="0" stroke="#000" stroke-opacity="0"/><use xlink:href="#D" fill="#a0616a"/><use xlink:href="#D" fill-opacity="0" stroke="#000" stroke-opacity="0"/></svg>