<svg xmlns="http://www.w3.org/2000/svg" xmlns:xlink="http://www.w3.org/1999/xlink" viewBox="0 0 370 210" width="300" height="150"><defs><path d="M23.9 93.27c0-.31.19-.59.48-.75 5.31-2.76 47.74-24.91 53.05-27.67.47-.25 1.07-.11 1.35.3s.12.94-.35 1.19c-5.3 2.77-47.74 24.91-53.04 27.68-.15.08-.33.12-.5.12-.66-.26-.99-.55-.99-.87z" id="f"/><path d="M239.76 202.78v-35.57c0-.48.44-.87.98-.87.55 0 .99.39.99.87v35.57c0 .48-.44.87-.99.87-.54 0-.98-.39-.98-.87zm-.86-49.58c-5.6-2.87-50.4-25.85-56-28.72-.47-.24-.63-.77-.36-1.19.27-.41.88-.55 1.35-.31 5.6 2.87 50.4 25.85 56 28.72.47.25.63.78.35 1.19-.17.27-.5.43-.85.43-.17 0-.34-.04-.49-.12z" id="a"/><path d="M184.56 195.84c0-.31.19-.59.49-.75 5.6-2.87 50.4-25.85 56-28.72.47-.25 1.07-.11 1.35.31.27.41.11.94-.36 1.18-5.6 2.88-50.4 25.86-56 28.73-.15.08-.32.12-.49.12-.55 0-.99-.39-.99-.87zm-1.97-87.64c-.01-3.15-.08-28.41-.09-31.57 0-.48.44-.87.98-.87.55 0 .99.39.99.86l.09 31.58c0 .48-.44.87-.98.87-.66-.26-.99-.55-.99-.87z" id="c"/><path d="M170.64 125.48c-2.44 0-4.43-1.75-4.43-3.9v-11.61c0-2.16 1.99-3.91 4.43-3.91h25.68c2.45 0 4.44 1.75 4.44 3.91v11.61c0 2.15-1.99 3.9-4.44 3.9h-25.68z" id="d"/><path d="M99.19 66.46c-.55 0-.99-.39-.99-.87s.44-.87.99-.87h54.63c.55 0 .99.39.99.87s-.44.87-.99.87H99.19zM182.5 53.2V23.17c0-.48.44-.87.98-.87.55 0 .99.39.99.87V53.2c0 .48-.44.87-.99.87-.54 0-.98-.39-.98-.87zM77.43 66.34 24.38 38.66c-.46-.25-.6-.78-.32-1.19.28-.4.87-.53 1.33-.3 5.3 2.77 47.74 24.91 53.04 27.68.47.24.62.77.35 1.18-.18.27-.5.43-.85.43-.18 0-.35-.04-.5-.12z" id="e"/><path d="M126.41 152.46c0-.31.18-.6.49-.76 5.6-2.87 50.4-25.85 56-28.72.47-.24 1.07-.1 1.34.31.28.42.12.95-.35 1.19-5.6 2.87-50.4 25.85-56 28.72-.15.08-.32.12-.5.12-.54 0-.98-.39-.98-.86zm170.64 44.13c-5.6-2.87-50.4-25.85-56-28.73-.47-.24-.63-.77-.36-1.18.28-.42.88-.56 1.35-.31 5.6 2.87 50.4 25.85 56 28.72.47.24.63.77.36 1.19-.18.26-.51.43-.86.43-.17 0-.34-.04-.49-.12z" id="b"/><path d="M82.05 80.46c-2.44-.01-4.43-1.75-4.43-3.91v-22.6c0-2.16 1.99-3.9 4.43-3.91h13.19c2.45.01 4.44 1.75 4.44 3.91v22.6c0 2.16-1.99 3.91-4.44 3.91H82.05zm88.59-54.96c-2.44 0-4.43-1.75-4.43-3.9V9.98c0-2.15 1.99-3.9 4.43-3.9h25.68c2.45 0 4.44 1.75 4.44 3.9V21.6c0 2.15-1.99 3.9-4.44 3.9h-25.68zM8.13 53.56c-2.45-.01-4.43-1.75-4.43-3.91v-22.6c0-2.16 1.98-3.9 4.43-3.91h13.19c2.45.01 4.43 1.75 4.44 3.91v22.6c-.01 2.16-1.99 3.91-4.44 3.91H8.13zm0 54.66c-2.45 0-4.43-1.75-4.43-3.9V81.71c0-2.15 1.98-3.9 4.43-3.9h13.19c2.45 0 4.43 1.75 4.44 3.9v22.61c-.01 2.16-1.99 3.9-4.44 3.9H8.13z" id="g"/><path d="M213.14 66.46c-.54 0-.98-.39-.98-.87s.44-.87.98-.87h54.64c.55 0 .99.39.99.87s-.44.87-.99.87h-54.64zm74.91-.87c0-.3.19-.59.49-.74 5.3-2.77 47.73-24.91 53.04-27.68.47-.25 1.07-.11 1.35.3.28.42.12.95-.35 1.19-5.3 2.77-47.73 24.91-53.04 27.68-.15.08-.32.12-.5.12-.66-.26-.99-.55-.99-.87z" id="h"/><path d="M341.58 94.02c-5.31-2.77-47.74-24.91-53.04-27.68-.48-.24-.64-.77-.37-1.18.27-.42.87-.57 1.34-.33.01.01.02.01.03.02 5.31 2.76 47.74 24.9 53.04 27.67.47.25.63.78.35 1.19-.18.26-.5.43-.85.43-.23-.03-.4-.07-.5-.12z" id="i"/><path d="M271.72 80.46c-2.44-.01-4.43-1.75-4.43-3.91v-22.6c0-2.16 1.99-3.9 4.43-3.91h13.19c2.45.01 4.44 1.75 4.44 3.91v22.6c0 2.16-1.99 3.91-4.44 3.91h-13.19zm73.93-26.9c-2.45-.01-4.44-1.75-4.44-3.91v-22.6c0-2.16 1.99-3.9 4.44-3.91h13.19c2.45.01 4.43 1.75 4.43 3.91v22.6c0 2.16-1.98 3.91-4.43 3.91h-13.19zm0 54.66c-2.45 0-4.44-1.75-4.44-3.9V81.71c0-2.15 1.99-3.9 4.44-3.9h13.19c2.45 0 4.43 1.75 4.43 3.9v22.61c0 2.16-1.98 3.9-4.43 3.9h-13.19zm-232.17 61.51c-2.45 0-4.44-1.74-4.44-3.9v-11.61c0-2.16 1.99-3.9 4.44-3.9h25.68c2.44 0 4.43 1.74 4.43 3.9v11.61c0 2.16-1.99 3.9-4.43 3.9h-25.68zm114.15 0c-2.45 0-4.43-1.74-4.44-3.9v-11.61c.01-2.16 1.99-3.9 4.44-3.9h25.68c2.45 0 4.43 1.74 4.43 3.9v11.61c0 2.16-1.98 3.9-4.43 3.9h-25.68zm-52.24 42.52c-2.45 0-4.43-1.75-4.43-3.9v-11.61c0-2.16 1.98-3.9 4.43-3.91h25.68c2.45.01 4.43 1.75 4.43 3.91v11.61c0 2.15-1.98 3.9-4.43 3.9h-25.68zm109.41 0c-2.45 0-4.44-1.75-4.44-3.9v-11.61c0-2.16 1.99-3.9 4.44-3.91h25.68c2.44.01 4.43 1.75 4.43 3.91v11.61c0 2.15-1.99 3.9-4.43 3.9H284.8zm-57.17 0c-2.45 0-4.43-1.75-4.44-3.9v-11.61c.01-2.16 1.99-3.9 4.44-3.91h25.68c2.45.01 4.43 1.75 4.43 3.91v11.61c0 2.15-1.98 3.9-4.43 3.9h-25.68z" id="j"/><path d="M154.24 81.56c-2.45-.01-4.43-1.75-4.44-3.91V55.27c.01-2.15 1.99-3.9 4.44-3.9h62.43c2.45 0 4.43 1.75 4.44 3.9v22.38c-.01 2.16-1.99 3.9-4.44 3.91h-62.43z" id="k"/></defs><use xlink:href="#a" fill="#3f3d56"/><use xlink:href="#a" fill-opacity="0" stroke="#000" stroke-opacity="0"/><use xlink:href="#b" fill="#3f3d56"/><use xlink:href="#b" fill-opacity="0" stroke="#000" stroke-opacity="0"/><use xlink:href="#c" fill="#3f3d56"/><use xlink:href="#c" fill-opacity="0" stroke="#000" stroke-opacity="0"/><use xlink:href="#d" fill="#ccc"/><use xlink:href="#d" fill-opacity="0" stroke="#000" stroke-opacity="0"/><use xlink:href="#e" fill="#3f3d56"/><use xlink:href="#e" fill-opacity="0" stroke="#000" stroke-opacity="0"/><use xlink:href="#f" fill="#3f3d56"/><use xlink:href="#f" fill-opacity="0" stroke="#000" stroke-opacity="0"/><g><use xlink:href="#g" fill="#ccc"/><use xlink:href="#g" fill-opacity="0" stroke="#000" stroke-opacity="0"/></g><g><use xlink:href="#h" fill="#3f3d56"/><use xlink:href="#h" fill-opacity="0" stroke="#000" stroke-opacity="0"/></g><g><use xlink:href="#i" fill="#3f3d56"/><use xlink:href="#i" fill-opacity="0" stroke="#000" stroke-opacity="0"/></g><g><use xlink:href="#j" fill="#ccc"/><use xlink:href="#j" fill-opacity="0" stroke="#000" stroke-opacity="0"/></g><g><use xlink:href="#k" fill="#6c63ff"/><use xlink:href="#k" fill-opacity="0" stroke="#000" stroke-opacity="0"/></g></svg>